<svg xmlns="http://www.w3.org/2000/svg" xmlns:xlink="http://www.w3.org/1999/xlink" width="500" zoomAndPan="magnify" viewBox="0 0 375 374.999991" height="500" preserveAspectRatio="xMidYMid meet" version="1.0"><defs><g/></defs><g fill="#5500aa" fill-opacity="1"><g transform="translate(91.903375, 278.123103)"><g><path d="M 47.671875 -72.28125 L 38.859375 -55.703125 L 38.859375 0 L 10.359375 0 L 10.359375 -181.34375 L 38.859375 -181.34375 L 38.859375 -102.328125 L 76.171875 -181.34375 L 104.65625 -181.34375 L 65.03125 -100.515625 L 104.65625 0 L 75.390625 0 Z M 47.671875 -72.28125 "/></g></g></g><g fill="#5500aa" fill-opacity="1"><g transform="translate(186.200019, 278.123103)"><g><path d="M 6.734375 -137.828125 C 6.734375 -152.503906 10.226562 -163.769531 17.21875 -171.625 C 24.21875 -179.488281 34.710938 -183.421875 48.703125 -183.421875 C 62.691406 -183.421875 73.179688 -179.488281 80.171875 -171.625 C 87.171875 -163.769531 90.671875 -152.503906 90.671875 -137.828125 L 90.671875 -132.125 L 63.734375 -132.125 L 63.734375 -139.640625 C 63.734375 -146.203125 62.476562 -150.820312 59.96875 -153.5 C 57.46875 -156.175781 53.972656 -157.515625 49.484375 -157.515625 C 44.992188 -157.515625 41.492188 -156.175781 38.984375 -153.5 C 36.484375 -150.820312 35.234375 -146.203125 35.234375 -139.640625 C 35.234375 -133.421875 36.613281 -127.9375 39.375 -123.1875 C 42.132812 -118.4375 45.585938 -113.941406 49.734375 -109.703125 C 53.878906 -105.472656 58.328125 -101.242188 63.078125 -97.015625 C 67.828125 -92.785156 72.273438 -88.164062 76.421875 -83.15625 C 80.566406 -78.144531 84.019531 -72.441406 86.78125 -66.046875 C 89.550781 -59.660156 90.9375 -52.148438 90.9375 -43.515625 C 90.9375 -28.835938 87.347656 -17.566406 80.171875 -9.703125 C 73.003906 -1.847656 62.425781 2.078125 48.4375 2.078125 C 34.445312 2.078125 23.867188 -1.847656 16.703125 -9.703125 C 9.535156 -17.566406 5.953125 -28.835938 5.953125 -43.515625 L 5.953125 -54.65625 L 32.90625 -54.65625 L 32.90625 -41.703125 C 32.90625 -35.140625 34.242188 -30.5625 36.921875 -27.96875 C 39.597656 -25.382812 43.179688 -24.09375 47.671875 -24.09375 C 52.160156 -24.09375 55.742188 -25.382812 58.421875 -27.96875 C 61.097656 -30.5625 62.4375 -35.140625 62.4375 -41.703125 C 62.4375 -47.921875 61.050781 -53.40625 58.28125 -58.15625 C 55.519531 -62.90625 52.066406 -67.394531 47.921875 -71.625 C 43.773438 -75.863281 39.328125 -80.097656 34.578125 -84.328125 C 29.828125 -88.554688 25.378906 -93.175781 21.234375 -98.1875 C 17.097656 -103.195312 13.644531 -108.894531 10.875 -115.28125 C 8.113281 -121.675781 6.734375 -129.191406 6.734375 -137.828125 Z M 6.734375 -137.828125 "/></g></g></g></svg>